<svg xmlns="http://www.w3.org/2000/svg" version="1.1" xmlns:xlink="http://www.w3.org/1999/xlink" xmlns:svgjs="http://svgjs.dev/svgjs" viewBox="0 0 7.100999795519904 7.588064734400266"><g transform="matrix(1,0,0,1,1.7116404922423738,2.3738895003131137)"><rect width="7.588064734400266" height="7.588064734400266" x="-1.955172961682555" y="-2.3738895003131137" fill="#ffffff"></rect><g transform="matrix(1,0,0,1,0,0)"><g clip-path="url(#SvgjsClipPath1003)"><path d=" M -0.9513510620363835 1.4535242016141483 C -1.1428317766501295 1.1218707912553136 -1.1428317766501295 0.7132532087446868 -0.9513508833823163 0.3815997983858521 L -0.02303755207653113 -1.2262868064565922 C 0.16844387715348352 -1.5579420033560991 0.5223147073098966 -1.7622490080707403 0.9052847119326144 -1.7622490080707403 L 2.761947105357626 -1.7622490080707403 C 3.1449278292243754 -1.7622490080707403 3.4988058055434763 -1.5579294975713947 3.6902693693667707 -1.2262600083465114 L 4.618538037155754 0.3816176637925728 C 4.809983735572328 0.7132710741514074 4.809983735572328 1.121852925848593 4.618538037155754 1.4535063362074276 L 3.6902693693667707 3.0613929410498724 C 3.4988058055434763 3.3930463514087066 3.1449278292243754 3.5973730080707407 2.761947105357626 3.5973730080707407 L 0.9052847119326144 3.5973730080707407 C 0.5223147073098966 3.5973730080707407 0.16844387715348352 3.3930642168154277 -0.02303755207653113 3.0614108064565926 L -0.9513510620363835 1.4535242016141483 Z" fill="#de6d2e" transform="matrix(1,0,0,1,0,0)" fill-rule="nonzero"></path></g></g><g transform="matrix(1,0,0,1,0,0)"><path d=" M 0.646806 2.0557400000000006 Q 0.43120400000000003 2.0557400000000006 0.30710750000000003 1.9191085000000003 Q 0.183011 1.7824770000000005 0.183011 1.5468190000000004 Q 0.183011 1.5192420000000004 0.1842645 1.4941720000000003 Q 0.18551800000000002 1.4691020000000004 0.188025 1.4415250000000004 Q 0.21560200000000002 1.2033600000000004 0.3321775 0.9777300000000004 Q 0.448753 0.7521000000000004 0.6442990000000001 0.5615680000000003 Q 0.544019 0.5415120000000004 0.42744350000000003 0.5076675000000004 Q 0.31086800000000003 0.4738230000000003 0.20808100000000002 0.42368300000000025 Q 0.105294 0.3735430000000004 0.038858500000000004 0.3058540000000003 Q -0.027577 0.2381650000000004 -0.027577 0.15042000000000044 Q -0.027577 0.08273100000000033 0.037605 0.04136550000000039 Q 0.102787 4.440892098500626e-16 0.205574 4.440892098500626e-16 Q 0.290812 4.440892098500626e-16 0.4023735 0.027577000000000407 Q 0.513935 0.05515400000000037 0.6217360000000001 0.09777300000000033 Q 0.729537 0.1403920000000003 0.797226 0.1855180000000003 Q 0.807254 0.1930390000000004 0.822296 0.20682750000000039 Q 0.837338 0.22061600000000037 0.837338 0.24067200000000044 Q 0.837338 0.25822100000000026 0.8210425 0.26574200000000037 Q 0.804747 0.27326300000000026 0.792212 0.26323500000000033 Q 0.669369 0.19805300000000026 0.5051605 0.16044800000000037 Q 0.34095200000000003 0.12284300000000026 0.190532 0.12284300000000026 Q 0.097773 0.12284300000000026 0.097773 0.16796900000000026 Q 0.097773 0.2080810000000004 0.15543400000000002 0.26574200000000037 Q 0.25822100000000003 0.36100800000000044 0.40864100000000003 0.4186690000000004 Q 0.559061 0.47633000000000036 0.706974 0.5039070000000003 Q 0.797226 0.4261900000000003 0.8937455000000001 0.36351500000000025 Q 0.9902650000000001 0.30084000000000044 1.0930520000000001 0.2532070000000004 Q 1.386371 0.1253500000000003 1.752393 0.1253500000000003 Q 1.9078270000000002 0.13537800000000044 1.9943185 0.1855180000000003 Q 2.08081 0.23565800000000037 2.08081 0.32340300000000033 Q 2.08081 0.4111480000000003 1.9968255000000001 0.4738230000000003 Q 1.912841 0.5364980000000004 1.752393 0.5715960000000004 Q 1.677183 0.5866380000000004 1.5894380000000001 0.5966660000000004 Q 1.5016930000000002 0.6066940000000003 1.421469 0.6104545000000003 Q 1.341245 0.6142150000000004 1.2885980000000001 0.6142150000000004 Q 1.193332 0.6142150000000004 1.098066 0.6117080000000004 Q 1.0028000000000001 0.6092010000000003 0.9075340000000001 0.5991730000000004 Q 0.82731 0.6693690000000003 0.7558605 0.7508465000000004 Q 0.684411 0.8323240000000003 0.6217360000000001 0.9275900000000004 Q 0.456274 1.1908250000000002 0.411148 1.4490460000000005 Q 0.40112000000000003 1.4941720000000003 0.39735950000000003 1.5392980000000005 Q 0.39359900000000003 1.5844240000000003 0.39359900000000003 1.6295500000000005 Q 0.39359900000000003 1.9730090000000005 0.671876 1.9730090000000005 Q 0.7571140000000001 1.9730090000000005 0.8624080000000001 1.9354040000000003 Q 1.0629680000000001 1.8576870000000003 1.266035 1.6746760000000005 Q 1.313668 1.6320570000000005 1.3550335 1.5856775000000005 Q 1.3963990000000002 1.5392980000000005 1.431497 1.4916650000000005 Q 1.5894380000000001 1.2785700000000004 1.5894380000000001 1.1055870000000003 Q 1.5894380000000001 1.0604610000000005 1.5681285 1.0416585000000005 Q 1.5468190000000002 1.0228560000000004 1.496679 1.0228560000000004 Q 1.434004 1.0228560000000004 1.358794 1.0604610000000005 Q 1.215895 1.1331640000000003 1.0479260000000001 1.3036400000000004 Q 1.007814 1.3437520000000003 0.9752230000000001 1.3851175000000004 Q 0.942632 1.4264830000000004 0.9150550000000001 1.4665950000000003 Q 0.7871980000000001 1.6445920000000005 0.7871980000000001 1.7624210000000005 Q 0.7871980000000001 1.7849840000000003 0.77717 1.8037865000000004 Q 0.767142 1.8225890000000005 0.747086 1.8225890000000005 Q 0.714495 1.8225890000000005 0.714495 1.7724490000000004 Q 0.714495 1.6997460000000004 0.7433255000000001 1.6207755000000004 Q 0.7721560000000001 1.5418050000000005 0.799733 1.4791300000000005 Q 0.849873 1.3863710000000005 0.9225760000000001 1.2873445000000006 Q 0.995279 1.1883180000000004 1.0867845 1.1030800000000003 Q 1.17829 1.0178420000000004 1.2823305 0.9651950000000004 Q 1.386371 0.9125480000000004 1.496679 0.9125480000000004 Q 1.719802 0.9125480000000004 1.719802 1.1080940000000004 Q 1.719802 1.2860910000000003 1.62955 1.4590740000000004 Q 1.539298 1.6320570000000005 1.373836 1.7724490000000004 Q 1.2133880000000001 1.9053200000000003 1.022856 1.9805300000000003 Q 0.8323240000000001 2.0557400000000006 0.646806 2.0557400000000006 M 1.05294 0.5264700000000004 Q 1.165755 0.5264700000000004 1.2948655 0.5164420000000003 Q 1.4239760000000001 0.5064140000000004 1.5530865 0.48385100000000025 Q 1.6821970000000002 0.46128800000000036 1.7874910000000002 0.4261900000000003 Q 1.8150680000000001 0.4186690000000004 1.8438985 0.40864100000000025 Q 1.872729 0.39861300000000033 1.897799 0.38607800000000037 Q 1.917855 0.3735430000000004 1.9491925 0.3522335000000003 Q 1.9805300000000001 0.33092400000000044 1.9805300000000001 0.31086800000000037 Q 1.9805300000000001 0.2832910000000004 1.9266295 0.27075600000000044 Q 1.872729 0.25822100000000026 1.7724490000000002 0.25822100000000026 Q 1.3487660000000001 0.25822100000000026 0.995279 0.5264700000000004 L 1.05294 0.5264700000000004 M 3.529824172851563 2.0632610000000002 Q 3.5122751728515627 2.0632610000000002 3.492219172851563 2.0620075000000004 Q 3.4721631728515625 2.060754 3.4521071728515627 2.0582470000000006 Q 3.354334172851563 2.0482190000000005 3.2252236728515626 2.0043465000000005 Q 3.0961131728515627 1.9604740000000005 2.955721172851563 1.9053200000000003 Q 2.862962172851563 1.8677150000000005 2.7438796728515626 1.8150680000000003 Q 2.6247971728515624 1.7624210000000005 2.529531172851563 1.7223090000000005 Q 2.5094751728515625 1.7122810000000004 2.490672672851563 1.7047600000000005 Q 2.4718701728515624 1.6972390000000004 2.4568281728515626 1.6897180000000005 Q 2.326464172851563 1.7849840000000003 2.2023676728515627 1.8313635000000004 Q 2.078271172851563 1.8777430000000004 1.9403861728515626 1.8777430000000004 Q 1.7974871728515627 1.8777430000000004 1.7335586728515626 1.8326170000000004 Q 1.6696301728515626 1.7874910000000004 1.6696301728515626 1.6872110000000005 Q 1.6696301728515626 1.5994660000000005 1.7373191728515627 1.5367910000000005 Q 1.8050081728515626 1.4741160000000004 1.9253441728515628 1.4515530000000005 Q 1.9529211728515627 1.4465390000000005 1.9817516728515627 1.4440320000000004 Q 2.0105821728515627 1.4415250000000004 2.0406661728515627 1.4415250000000004 Q 2.1284111728515627 1.4415250000000004 2.226184172851563 1.4603275000000004 Q 2.3239571728515624 1.4791300000000005 2.4242371728515626 1.5167350000000004 Q 2.5420661728515626 1.3989060000000004 2.6561346728515627 1.2647815000000004 Q 2.770203172851563 1.1306570000000002 2.8754971728515626 1.0053070000000004 Q 2.9732701728515627 0.8924920000000004 3.103634172851563 0.7759165000000003 Q 3.233998172851563 0.6593410000000004 3.3693761728515628 0.5565540000000004 Q 3.5047541728515625 0.45376700000000025 3.615062172851563 0.3885850000000004 L 3.5724431728515627 0.3810640000000003 Q 3.5398521728515626 0.37605000000000044 3.502247172851563 0.36351500000000025 Q 3.464642172851563 0.3509800000000003 3.4220231728515627 0.33844500000000033 Q 3.3743901728515624 0.32591000000000037 3.325503672851563 0.3121215000000004 Q 3.2766171728515627 0.2983330000000004 3.2415191728515627 0.2908120000000003 Q 3.173830172851563 0.27326300000000026 3.1023806728515626 0.2619815000000003 Q 3.0309311728515627 0.25070000000000037 2.950707172851563 0.25070000000000037 Q 2.5771641728515626 0.25070000000000037 2.4041811728515627 0.41616200000000036 Q 2.3114221728515627 0.5014000000000003 2.3114221728515627 0.5841310000000004 Q 2.3114221728515627 0.6267500000000004 2.3415061728515627 0.6555805000000003 Q 2.3715901728515627 0.6844110000000003 2.4292511728515627 0.6844110000000003 Q 2.5195031728515627 0.6844110000000003 2.6310646728515628 0.6468060000000004 Q 2.742626172851563 0.6092010000000003 2.8554411728515627 0.5440190000000003 Q 2.9682561728515626 0.4788370000000004 3.0585081728515626 0.39861300000000033 Q 3.071043172851563 0.39109200000000044 3.0785641728515625 0.39109200000000044 Q 3.0936061728515627 0.39109200000000044 3.1048876728515626 0.4023735000000004 Q 3.1161691728515626 0.41365500000000033 3.1161691728515626 0.4261900000000003 Q 3.1161691728515626 0.43872500000000025 3.108648172851563 0.44624600000000036 Q 3.0635221728515627 0.49137200000000036 2.9895656728515627 0.5402585000000004 Q 2.9156091728515627 0.5891450000000005 2.830371172851563 0.6355245000000003 Q 2.7451331728515624 0.6819040000000003 2.666162672851563 0.7182555000000004 Q 2.5871921728515628 0.7546070000000005 2.5320381728515624 0.7746630000000003 Q 2.4768841728515625 0.7922120000000004 2.430504672851563 0.8009865000000003 Q 2.3841251728515624 0.8097610000000004 2.3440131728515627 0.8097610000000004 Q 2.2437331728515626 0.8097610000000004 2.189832672851563 0.7621280000000004 Q 2.135932172851563 0.7144950000000003 2.135932172851563 0.6417920000000004 Q 2.135932172851563 0.5841310000000004 2.168523172851563 0.5189490000000003 Q 2.201114172851563 0.45376700000000025 2.2688031728515625 0.39109200000000044 Q 2.3364921728515626 0.3284170000000004 2.4342651728515627 0.2845445000000004 Q 2.5320381728515624 0.24067200000000044 2.6398391728515627 0.21309500000000026 Q 2.747640172851563 0.1855180000000003 2.8479201728515626 0.1717295000000003 Q 2.9482001728515628 0.15794100000000033 3.020903172851563 0.15794100000000033 Q 3.108648172851563 0.15794100000000033 3.201407172851563 0.16546200000000044 Q 3.294166172851563 0.17298300000000033 3.3944461728515627 0.1855180000000003 Q 3.4445861728515625 0.1930390000000004 3.4959796728515626 0.2018135000000003 Q 3.5473731728515627 0.21058800000000044 3.5874851728515624 0.2156020000000003 Q 3.6075411728515627 0.21810900000000033 3.622583172851563 0.22061600000000037 Q 3.6376251728515627 0.2231230000000004 3.6476531728515624 0.22563000000000044 Q 3.697793172851563 0.23565800000000037 3.7404121728515625 0.23941850000000042 Q 3.7830311728515627 0.24317900000000026 3.8156221728515627 0.24317900000000026 Q 3.9159021728515624 0.24317900000000026 3.9434791728515624 0.2080810000000004 L 3.9635351728515626 0.20557400000000037 Q 3.9810841728515625 0.2231230000000004 3.9810841728515625 0.25571400000000044 Q 3.9810841728515625 0.29331900000000033 3.951000172851563 0.3284170000000004 Q 3.900860172851563 0.38357100000000033 3.7353981728515624 0.39861300000000033 Q 3.6050341728515627 0.48385100000000025 3.3944461728515627 0.7170020000000004 Q 3.3643621728515627 0.7495930000000004 3.3305176728515624 0.7871980000000003 Q 3.2966731728515626 0.8248030000000004 3.2590681728515625 0.8674220000000004 L 3.0183961728515625 1.1306570000000002 Q 2.9582281728515625 1.1933320000000003 2.900567172851563 1.2547535000000005 Q 2.8429061728515626 1.3161750000000003 2.7877521728515626 1.3763430000000003 Q 2.7351051728515627 1.4314970000000005 2.6837116728515626 1.4841440000000004 Q 2.6323181728515626 1.5367910000000005 2.5796711728515627 1.5869310000000003 L 2.7275841728515626 1.6596340000000005 L 3.0083681728515628 1.7975190000000003 Q 3.131211172851563 1.8551800000000005 3.2440261728515627 1.9040665000000003 Q 3.3568411728515626 1.9529530000000004 3.4345581728515624 1.9755160000000005 Q 3.492219172851563 1.9905580000000005 3.5323311728515625 1.9905580000000005 Q 3.6250901728515625 1.9905580000000005 3.6526671728515625 1.9191085000000003 Q 3.6802441728515625 1.8476590000000004 3.6802441728515625 1.7172950000000005 Q 3.677737172851563 1.6295500000000005 3.6639486728515624 1.5493260000000004 Q 3.650160172851563 1.4691020000000004 3.6301041728515626 1.4114410000000004 Q 3.627597172851563 1.4089340000000004 3.627597172851563 1.4039200000000003 Q 3.627597172851563 1.3913850000000005 3.642639172851563 1.3888780000000005 L 3.6476531728515624 1.3888780000000005 Q 3.655174172851563 1.3888780000000005 3.661441672851563 1.3976525000000004 Q 3.6677091728515627 1.4064270000000003 3.672723172851563 1.4189620000000005 Q 3.732891172851563 1.5192420000000004 3.7792706728515624 1.6057335000000004 Q 3.825650172851563 1.6922250000000005 3.825650172851563 1.8100540000000005 Q 3.825650172851563 1.9328970000000005 3.749186672851563 1.9980790000000004 Q 3.672723172851563 2.0632610000000002 3.529824172851563 2.0632610000000002 M 1.9328651728515627 1.8050400000000004 Q 2.0908061728515626 1.8050400000000004 2.3039011728515626 1.6295500000000005 Q 2.2512541728515627 1.6170150000000003 2.1835651728515626 1.6082405000000004 Q 2.1158761728515625 1.5994660000000005 2.048187172851563 1.5994660000000005 Q 1.9855121728515628 1.5994660000000005 1.9240906728515625 1.6182685000000003 Q 1.8626691728515627 1.6370710000000004 1.8225571728515626 1.6659015000000004 Q 1.7824451728515627 1.6947320000000003 1.7799381728515626 1.7248160000000003 Q 1.7799381728515626 1.7473790000000005 1.8125291728515627 1.7774630000000005 Q 1.8451201728515627 1.8050400000000004 1.9328651728515627 1.8050400000000004" fill="#ffffff" fill-rule="nonzero"></path></g><g transform="matrix(1,0,0,1,0,0)"><path d=" M 0.8712379361666167 4.436665075378433 Q 0.8712379361666167 4.506382623455356 0.8128494896521937 4.55808980494574 Q 0.7544610431377706 4.609796986436125 0.6571469656137321 4.609796986436125 Q 0.5476323171762322 4.609796986436125 0.47457413658728986 4.537610275198144 Q 0.40151595599834755 4.465423563960163 0.40151595599834755 4.3442893241765095 Q 0.40151595599834755 4.233612716604394 0.4760265855055591 4.165492862337567 Q 0.5505372150127706 4.097373008070741 0.6626662715031553 4.097373008070741 Q 0.7100161062387322 4.097373008070741 0.7440034109262321 4.113204701279875 Q 0.7779907156137322 4.12903639448901 0.8041347961425783 4.155761454585163 L 0.8041347961425783 4.125550517085164 Q 0.8041347961425783 4.114511905306317 0.8121232651930591 4.109573578984202 Q 0.8201117342435398 4.104635252662087 0.8308598562387322 4.104635252662087 Q 0.840446019099309 4.104635252662087 0.8478535085824821 4.110299803443336 Q 0.8552609980656553 4.1159643542245865 0.8552609980656553 4.126131496652471 L 0.8552609980656553 4.2347746757390095 Q 0.8552609980656553 4.244941818166894 0.8478535085824821 4.250606368948144 Q 0.840446019099309 4.256270919729395 0.8308598562387322 4.256270919729395 Q 0.8209832035945014 4.256270919729395 0.8163353670560398 4.248572940462568 Q 0.8116875305175784 4.240874961195741 0.8064587144118092 4.233612716604394 Q 0.7852529602050784 4.198753942565933 0.7511204106257514 4.175514759873625 Q 0.7169878610464244 4.152275577181317 0.6626662715031553 4.152275577181317 Q 0.5766812955416167 4.152275577181317 0.527298032320463 4.207613880967375 Q 0.4779147690993091 4.262952184753432 0.4779147690993091 4.347484711796702 Q 0.4779147690993091 4.442765360835163 0.5261360731858475 4.497813174837567 Q 0.574357377272386 4.552860988839972 0.6626662715031553 4.552860988839972 Q 0.7239596158541168 4.552860988839972 0.7620137775127707 4.519599908611606 Q 0.8000679391714245 4.48633882838324 0.8108160611666169 4.431145769489009 Q 0.8128494896521937 4.420688137277471 0.821709428053636 4.415604566063529 Q 0.8305693664550784 4.410520994849587 0.840446019099309 4.410520994849587 Q 0.8517751206618092 4.410520994849587 0.8615065284142129 4.417202259873625 Q 0.8712379361666167 4.423883524897663 0.8712379361666167 4.436665075378433 L 0.8712379361666167 4.436665075378433 M 1.2927386122483475 4.553732458190932 Q 1.2927386122483475 4.57697164088324 1.2619466951810399 4.593384313659683 Q 1.2311547781137322 4.609796986436125 1.2114014728252707 4.609796986436125 Q 1.1875813105656552 4.609796986436125 1.1730568213829629 4.598177395089971 Q 1.1585323322002707 4.586557803743817 1.1533035160945015 4.562737641484202 Q 1.1320977618877706 4.587138783311125 1.097819967416617 4.598903619549106 Q 1.063542172945463 4.610668455787087 1.0246165419358475 4.610668455787087 Q 0.9801716050368091 4.610668455787087 0.9503964022122899 4.583652905907279 Q 0.9206211993877707 4.556637356027471 0.9206211993877707 4.513354378263048 Q 0.9206211993877707 4.435503116243817 0.9967295227050783 4.418073729224586 Q 1.072837846022386 4.400644342205355 1.1454602919358476 4.394253566964971 L 1.1454602919358476 4.347194222013048 Q 1.1454602919358476 4.324536018888048 1.1259974764310399 4.315676080486606 Q 1.1065346609262323 4.306816142085164 1.084166947584886 4.306816142085164 Q 1.0434983778733475 4.306816142085164 1.0224378685584437 4.315530835594779 Q 1.00137735924354 4.324245529104394 0.9734903400127707 4.3419654059072785 Q 0.9708759319598861 4.343417854825548 0.9684067687988284 4.3442893241765095 Q 0.9659376056377706 4.345160793527471 0.963323197584886 4.345160793527471 Q 0.9534465449406553 4.345160793527471 0.9456033207820015 4.335865120450548 Q 0.9377600966233476 4.326569447373625 0.9377600966233476 4.316402304945741 Q 0.9377600966233476 4.281543530907279 0.9887410536545976 4.269488204885644 Q 1.0397220106858476 4.25743287886401 1.0757427438589244 4.25743287886401 Q 1.1492366591233476 4.25743287886401 1.1762522090031553 4.288660530606798 Q 1.203267758882963 4.319888182349587 1.203267758882963 4.392510628263048 L 1.203267758882963 4.538917479224587 Q 1.203267758882963 4.5479226625178555 1.2063179016113283 4.55387770308276 Q 1.2093680443396937 4.5598327436476636 1.2160493093637321 4.5598327436476636 Q 1.2291213496281552 4.5598327436476636 1.2453887775127708 4.544146295330356 Q 1.261656205397386 4.528459847013048 1.2721138376089245 4.528459847013048 Q 1.2785046128493092 4.528459847013048 1.2856216125488285 4.537029295630837 Q 1.2927386122483475 4.545598744248625 1.2927386122483475 4.553732458190932 L 1.2927386122483475 4.553732458190932 M 1.1454602919358476 4.437827034513048 Q 1.09956290611854 4.442765360835163 1.0413197044959437 4.452787258371221 Q 0.9830765028733476 4.462809155907279 0.9830765028733476 4.511611439561125 Q 0.9830765028733476 4.536303071171702 1.00137735924354 4.548358397193336 Q 1.0196782156137323 4.560413723214971 1.0449508267916168 4.560413723214971 Q 1.075161764291617 4.560413723214971 1.1002891305776745 4.549229866544298 Q 1.1254164968637321 4.538046009873625 1.1454602919358476 4.522359561556318 L 1.1454602919358476 4.437827034513048 M 1.5451742342435397 4.31030201948901 Q 1.5103154602050783 4.31030201948901 1.4830094205416167 4.325697978022664 Q 1.4557033808781552 4.341093936556318 1.4414693814791169 4.362299690763048 L 1.4414693814791169 4.551408539921702 L 1.5193206434983475 4.551408539921702 Q 1.5303592552771936 4.551408539921702 1.535297581599309 4.559397008972183 Q 1.5402359079214243 4.567385478022663 1.5402359079214243 4.578133600017856 Q 1.5402359079214243 4.587719762878432 1.5345713571401745 4.595127252361606 Q 1.5289068063589244 4.602534741844779 1.5187396639310398 4.602534741844779 L 1.3267259169358474 4.602534741844779 Q 1.314525346022386 4.602534741844779 1.308715550349309 4.595562987037087 Q 1.3029057546762322 4.588591232229394 1.3029057546762322 4.577552620450548 Q 1.3029057546762322 4.5668044984553555 1.3082798156738282 4.5591065191885285 Q 1.3136538766714245 4.551408539921702 1.3249829782339244 4.551408539921702 L 1.3819189758300783 4.551408539921702 L 1.3819189758300783 4.318145243647663 L 1.3403789367675782 4.328312386075548 Q 1.3397979572002705 4.328602875859202 1.3387812429574821 4.328748120751029 Q 1.3377645287146938 4.328893365642855 1.3363120797964245 4.328893365642855 Q 1.3275973862868091 4.328893365642855 1.320044651911809 4.321776365943337 Q 1.312491917536809 4.314659366243817 1.312491917536809 4.305654182950548 Q 1.312491917536809 4.295777530306317 1.3167040193997899 4.289822489741414 Q 1.3209161212627705 4.28386744917651 1.3290498352050784 4.281253041123625 L 1.4100964848445015 4.258013858431317 Q 1.4112584439791167 4.258013858431317 1.4115489337627705 4.257723368647664 Q 1.4118394235464244 4.25743287886401 1.4130013826810397 4.25743287886401 L 1.414744321382963 4.25743287886401 Q 1.4208446068396936 4.25743287886401 1.4252019535945013 4.261064001159682 Q 1.429559300349309 4.264695123455356 1.429559300349309 4.27108589869574 L 1.43565958580604 4.325988467806317 Q 1.4557033808781552 4.295487040522664 1.488383481539213 4.276459959693336 Q 1.5210635822002705 4.25743287886401 1.5718992943396937 4.25743287886401 Q 1.5814854572002706 4.25743287886401 1.5888929466834436 4.26309742964526 Q 1.5963004361666167 4.268761980426509 1.5963004361666167 4.278929122854394 L 1.5963004361666167 4.3408034467726635 Q 1.5963004361666167 4.353004017686125 1.5893286813589245 4.358813813359202 Q 1.582356926551232 4.364623609032279 1.571318314772386 4.364623609032279 Q 1.5605701927771936 4.364623609032279 1.5528722135103668 4.359249548034683 Q 1.5451742342435397 4.353875487037087 1.5451742342435397 4.342546385474587 L 1.5451742342435397 4.31030201948901 M 1.694195493257963 4.440150952782279 Q 1.694195493257963 4.497086950378432 1.729780491755559 4.526862153202952 Q 1.7653654902531553 4.556637356027471 1.8173631615271937 4.556637356027471 Q 1.854255364051232 4.556637356027471 1.875315873366136 4.542839091303914 Q 1.8963763826810398 4.5290408265803554 1.9155487084021936 4.511320949777471 Q 1.9199060551570013 4.507544582589971 1.9248443814791167 4.505656398996221 Q 1.9297827078012322 4.503768215402471 1.9347210341233474 4.503768215402471 Q 1.9463406254695013 4.503768215402471 1.9544743394118091 4.5108852151019905 Q 1.9626080533541168 4.51800221480151 1.9626080533541168 4.529912295931317 Q 1.9626080533541168 4.56709498823901 1.9087221984863283 4.588445987337567 Q 1.8548363436185398 4.609796986436125 1.815039243257963 4.609796986436125 Q 1.735445042536809 4.609796986436125 1.6838831059382513 4.562592396592375 Q 1.6323211693396937 4.515387806748625 1.6323211693396937 4.435503116243817 Q 1.6323211693396937 4.356489895089971 1.6796710040752707 4.30696138697699 Q 1.7270208388108474 4.25743287886401 1.8080674884502705 4.25743287886401 Q 1.8661654451810399 4.25743287886401 1.9140962594839244 4.297665713900067 Q 1.962027073786809 4.337898548936125 1.962027073786809 4.401515811556317 Q 1.962027073786809 4.423302545330356 1.9485192988469051 4.427659892085163 Q 1.9350115239070014 4.432017238839971 1.9143867492675783 4.434050667325548 L 1.694195493257963 4.440150952782279 M 1.8891141380896936 4.382924465402471 Q 1.8891141380896936 4.341384426339971 1.863696282019982 4.324100284212568 Q 1.8382784259502707 4.306816142085164 1.8080674884502705 4.306816142085164 Q 1.7569412865271936 4.306816142085164 1.7268755939190206 4.332088753263048 Q 1.6968099013108475 4.357361364440933 1.6930335341233476 4.399191893287086 L 1.8676178940993091 4.395415526099587 Q 1.8757516080416168 4.395125036315933 1.8824328730656552 4.392365383371221 Q 1.8891141380896936 4.38960573042651 1.8891141380896936 4.382924465402471 L 1.8891141380896936 4.382924465402471 M 2.0729941711425783 4.440150952782279 Q 2.0729941711425783 4.497086950378432 2.1085791696401746 4.526862153202952 Q 2.1441641681377703 4.556637356027471 2.196161839411809 4.556637356027471 Q 2.2330540419358473 4.556637356027471 2.254114551250751 4.542839091303914 Q 2.275175060565655 4.5290408265803554 2.294347386286809 4.511320949777471 Q 2.2987047330416166 4.507544582589971 2.303643059363732 4.505656398996221 Q 2.3085813856858475 4.503768215402471 2.3135197120079627 4.503768215402471 Q 2.3251393033541166 4.503768215402471 2.3332730172964244 4.5108852151019905 Q 2.341406731238732 4.51800221480151 2.341406731238732 4.529912295931317 Q 2.341406731238732 4.56709498823901 2.2875208763709436 4.588445987337567 Q 2.2336350215031553 4.609796986436125 2.193837921142578 4.609796986436125 Q 2.1142437204214244 4.609796986436125 2.0626817838228666 4.562592396592375 Q 2.011119847224309 4.515387806748625 2.011119847224309 4.435503116243817 Q 2.011119847224309 4.356489895089971 2.058469681959886 4.30696138697699 Q 2.1058195166954627 4.25743287886401 2.186866166334886 4.25743287886401 Q 2.244964123065655 4.25743287886401 2.2928949373685397 4.297665713900067 Q 2.3408257516714244 4.337898548936125 2.3408257516714244 4.401515811556317 Q 2.3408257516714244 4.423302545330356 2.3273179767315204 4.427659892085163 Q 2.3138102017916164 4.432017238839971 2.2931854271521934 4.434050667325548 L 2.0729941711425783 4.440150952782279 M 2.267912815974309 4.382924465402471 Q 2.267912815974309 4.341384426339971 2.2424949599045974 4.324100284212568 Q 2.2170771038348858 4.306816142085164 2.186866166334886 4.306816142085164 Q 2.135739964411809 4.306816142085164 2.105674271803636 4.332088753263048 Q 2.075608579195463 4.357361364440933 2.071832212007963 4.399191893287086 L 2.246416571983924 4.395415526099587 Q 2.254550285926232 4.395125036315933 2.2612315509502707 4.392365383371221 Q 2.267912815974309 4.38960573042651 2.267912815974309 4.382924465402471 L 2.267912815974309 4.382924465402471 M 2.6263772090031554 4.31030201948901 Q 2.591518434964694 4.31030201948901 2.564212395301232 4.325697978022664 Q 2.536906355637771 4.341093936556318 2.5226723562387323 4.362299690763048 L 2.5226723562387323 4.551408539921702 L 2.600523618257963 4.551408539921702 Q 2.6115622300368093 4.551408539921702 2.6165005563589245 4.559397008972183 Q 2.6214388826810398 4.567385478022663 2.6214388826810398 4.578133600017856 Q 2.6214388826810398 4.587719762878432 2.61577433189979 4.595127252361606 Q 2.61010978111854 4.602534741844779 2.5999426386906554 4.602534741844779 L 2.407928891695463 4.602534741844779 Q 2.3957283207820015 4.602534741844779 2.3899185251089246 4.595562987037087 Q 2.3841087294358476 4.588591232229394 2.3841087294358476 4.577552620450548 Q 2.3841087294358476 4.5668044984553555 2.3894827904334437 4.5591065191885285 Q 2.3948568514310398 4.551408539921702 2.40618595299354 4.551408539921702 L 2.4631219505896937 4.551408539921702 L 2.4631219505896937 4.318145243647663 L 2.421581911527194 4.328312386075548 Q 2.421000931959886 4.328602875859202 2.4199842177170976 4.328748120751029 Q 2.418967503474309 4.328893365642855 2.41751505455604 4.328893365642855 Q 2.4088003610464246 4.328893365642855 2.4012476266714247 4.321776365943337 Q 2.3936948922964243 4.314659366243817 2.3936948922964243 4.305654182950548 Q 2.3936948922964243 4.295777530306317 2.3979069941594053 4.289822489741414 Q 2.402119096022386 4.28386744917651 2.410252809964694 4.281253041123625 L 2.4912994596041167 4.258013858431317 Q 2.492461418738732 4.258013858431317 2.492751908522386 4.257723368647664 Q 2.4930423983060397 4.25743287886401 2.494204357440655 4.25743287886401 L 2.495947296142578 4.25743287886401 Q 2.5020475815993093 4.25743287886401 2.506404928354117 4.261064001159682 Q 2.5107622751089247 4.264695123455356 2.5107622751089247 4.27108589869574 L 2.5168625605656554 4.325988467806317 Q 2.536906355637771 4.295487040522664 2.569586456298828 4.276459959693336 Q 2.602266556959886 4.25743287886401 2.653102269099309 4.25743287886401 Q 2.662688431959886 4.25743287886401 2.670095921443059 4.26309742964526 Q 2.6775034109262323 4.268761980426509 2.6775034109262323 4.278929122854394 L 2.6775034109262323 4.3408034467726635 Q 2.6775034109262323 4.353004017686125 2.67053165611854 4.358813813359202 Q 2.6635599013108475 4.364623609032279 2.6525212895320016 4.364623609032279 Q 2.641773167536809 4.364623609032279 2.634075188269982 4.359249548034683 Q 2.6263772090031554 4.353875487037087 2.6263772090031554 4.342546385474587 L 2.6263772090031554 4.31030201948901 M 2.8122906705416164 4.188005820570741 Q 2.7939898141714243 4.188005820570741 2.7810630187988283 4.175079025198144 Q 2.768136223426232 4.162152229825548 2.768136223426232 4.143851373455356 Q 2.768136223426232 4.125550517085164 2.7810630187988283 4.112623721712567 Q 2.7939898141714243 4.099696926339972 2.8122906705416164 4.099696926339972 Q 2.830591526911809 4.099696926339972 2.8433730773925783 4.112623721712567 Q 2.856154627873347 4.125550517085164 2.856154627873347 4.143851373455356 Q 2.856154627873347 4.162152229825548 2.8433730773925783 4.175079025198144 Q 2.830591526911809 4.188005820570741 2.8122906705416164 4.188005820570741 L 2.8122906705416164 4.188005820570741 M 2.722819817176232 4.578424089801509 Q 2.722819817176232 4.567675967806317 2.728193878173828 4.55997798853949 Q 2.7335679391714245 4.552280009272663 2.744897040733924 4.552280009272663 L 2.7846941410945014 4.552280009272663 L 2.7846941410945014 4.316983284513048 L 2.743154102032001 4.328312386075548 Q 2.7425731224646936 4.328602875859202 2.7415564082219053 4.328748120751029 Q 2.7405396939791165 4.328893365642855 2.739087245060847 4.328893365642855 Q 2.730372551551232 4.328893365642855 2.722819817176232 4.321776365943337 Q 2.715267082801232 4.314659366243817 2.715267082801232 4.305654182950548 Q 2.715267082801232 4.296358509873625 2.7194791846642126 4.289822489741414 Q 2.7236912865271936 4.283286469609202 2.731825000469501 4.281253041123625 L 2.824781731238732 4.258013858431317 Q 2.8256532005896937 4.257723368647664 2.8268151597243087 4.257578123755836 Q 2.827977118858924 4.25743287886401 2.8294295677771935 4.25743287886401 Q 2.8358203430175783 4.25743287886401 2.840032444880559 4.261064001159682 Q 2.8442445467435395 4.264695123455356 2.8442445467435395 4.27108589869574 L 2.8442445467435395 4.552280009272663 L 2.888979973426232 4.552280009272663 Q 2.9000185852050784 4.552280009272663 2.9049569115271936 4.560268478323144 Q 2.909895237849309 4.568256947373625 2.909895237849309 4.579005069368817 Q 2.909895237849309 4.588591232229394 2.904230687068059 4.595562987037087 Q 2.898566136286809 4.602534741844779 2.8883989938589245 4.602534741844779 L 2.7466399794358476 4.602534741844779 Q 2.7344394085223858 4.602534741844779 2.728629612849309 4.595998721712568 Q 2.722819817176232 4.589462701580356 2.722819817176232 4.578424089801509 L 2.722819817176232 4.578424089801509 M 3.243958489051232 4.274281286315933 Q 3.2567400395320014 4.274281286315933 3.2616783658541166 4.277912408611606 Q 3.2666166921762323 4.281543530907279 3.2666166921762323 4.287062836796702 Q 3.2666166921762323 4.296939489440932 3.257321019099309 4.30884957057074 Q 3.248025346022386 4.320759651700548 3.2433775094839246 4.3254074882390094 L 3.0275436002291167 4.551408539921702 L 3.227400571382963 4.551408539921702 L 3.2361152648925784 4.466876012878433 Q 3.236405754676232 4.457870829585164 3.243087019700271 4.453222993046702 Q 3.249768284724309 4.44857515650824 3.2581924884502707 4.44857515650824 Q 3.2701025695800783 4.44857515650824 3.2770743243877707 4.453658727722183 Q 3.284046079195463 4.458742298936125 3.284046079195463 4.468618951580356 Q 3.284046079195463 4.469199931147664 3.283900834303636 4.469926155606798 Q 3.283755589411809 4.470652380065933 3.283755589411809 4.4715238494168945 L 3.2718455082820013 4.582781436556317 Q 3.27097403893104 4.590624660714971 3.2642927739070013 4.596579701279875 Q 3.257611508882963 4.602534741844779 3.2500587745079628 4.602534741844779 L 2.970317112849309 4.602534741844779 Q 2.9581165419358477 4.602534741844779 2.952306746262771 4.595562987037087 Q 2.946496950589694 4.588591232229394 2.946496950589694 4.577552620450548 Q 2.946496950589694 4.570580865642856 2.9483851341834435 4.56520680464526 Q 2.9502733177771936 4.5598327436476636 2.95375919518104 4.556056376460163 L 3.1684311453012324 4.3254074882390094 L 3.0095332336425784 4.3254074882390094 L 3.006047356238732 4.381181526700548 Q 3.004885397104117 4.391058179344779 2.998494621863732 4.396286995450548 Q 2.9921038466233476 4.401515811556317 2.9822271939791167 4.401515811556317 Q 2.970607602632963 4.401515811556317 2.964797806959886 4.395996505666894 Q 2.958988011286809 4.390477199777471 2.958988011286809 4.379148098214971 L 2.958988011286809 4.375952710594779 L 2.964507317176232 4.2937441018207405 Q 2.964797806959886 4.28619136744574 2.970607602632963 4.2802363268808366 Q 2.97641739830604 4.274281286315933 2.9839701326810397 4.274281286315933 L 3.243958489051232 4.274281286315933" fill="#bf5000" fill-rule="nonzero"></path></g></g><defs><clipPath id="SvgjsClipPath1003"><path d=" M -1.1000000000000003 -1.7622490080707403 h 5.877718811035157 v 5.359622016141481 h -5.877718811035157 Z"></path></clipPath></defs></svg>